# xmcd CD database file
#
# Track frame offsets:
#	182
#	9112
#	14550
#	20602
#	27330
#	35632
#	42237
#	45782
#	52152
#	60182
#	65842
#	68640
#	74890
#	81195
#	85950
#	91787
#	99135
#	105675
#	111340
#	116025
#	124967
#	130495
#	139070
#	144585
#	148165
#	152792
#	158700
#	165050
#	170250
#	175575
#	179727
#	187310
#	193300
#	197485
#	200950
#	206527
#	212445
#	217677
#	223045
#	228975
#
# Disc length: 3101 seconds
#
# Revision: 1
# Processed by: cddbd v1.5.2PL0 Copyright (c) Steve Scherf et al.
# Submitted via: CDex 1.81
#
DISCID=4b0c1b28
DTITLE=Various Artist - Hooked On Country Music
DYEAR=1900
DGENRE=Country
TTITLE0=You Needed Me
TTITLE1=Talking In Your Sleep
TTITLE2=I Honestly Love You
TTITLE3=Eay From Now On
TTITLE4=Hopelessly Devoted To You
TTITLE5=Single Woman
TTITLE6=Come On Over
TTITLE7=Blue Bayou
TTITLE8=The Ways To Love A Man
TTITLE9=I Was Country When Country Wasn't Cool
TTITLE10=Luckenbach Texas
TTITLE11=Stand By Your Man
TTITLE12=D.I.V.O.R.C.E.
TTITLE13=Here You Come Again
TTITLE14=You're No Good
TTITLE15=Save The Last Dance For Me
TTITLE16=Beautiful Woman
TTITLE17=Blue Kentucky Girl
TTITLE18=Tumblin' Dice
TTITLE19=Tenessee Rose
TTITLE20=Half The Way
TTITLE21=Singing My Song
TTITLE22=When I Stop Leavin'
TTITLE23=That'll Be The Day
TTITLE24=Coalminer's Daughter
TTITLE25=Love Or Something Like It
TTITLE26=One's On The Way
TTITLE27=Rainy Day Woman
TTITLE28=Womanhood
TTITLE29=Blue Skies
TTITLE30=Golden Ring
TTITLE31=I Wanna See Jesus( On The Midnight Special)
TTITLE32=Who Am I To Say
TTITLE33=In My Tenessee Mountain Home
TTITLE34=Isn't It Always Love
TTITLE35=Two Doors Down
TTITLE36=Nine To Five
TTITLE37=Snowbird
TTITLE38=I've Always Been Crazy
TTITLE39=Undercover Lover
EXTD=
EXTT0=
EXTT1=
EXTT2=
EXTT3=
EXTT4=
EXTT5=
EXTT6=
EXTT7=
EXTT8=
EXTT9=
EXTT10=
EXTT11=
EXTT12=
EXTT13=
EXTT14=
EXTT15=
EXTT16=
EXTT17=
EXTT18=
EXTT19=
EXTT20=
EXTT21=
EXTT22=
EXTT23=
EXTT24=
EXTT25=
EXTT26=
EXTT27=
EXTT28=
EXTT29=
EXTT30=
EXTT31=
EXTT32=
EXTT33=
EXTT34=
EXTT35=
EXTT36=
EXTT37=
EXTT38=
EXTT39=
PLAYORDER=
